<svg viewBox="0 0 96 96" xmlns="http://www.w3.org/2000/svg" xmlns:xlink="http://www.w3.org/1999/xlink" id="Icons_DrumSet" overflow="hidden"><ellipse cx="30.54" cy="40.03" rx="8.5" ry="2" stroke="#EB8B2D" stroke-width="2.66667" stroke-linecap="butt" stroke-opacity="1" fill="none" fill-opacity="1"/><ellipse cx="61.54" cy="40.03" rx="8.5" ry="2" stroke="#EB8B2D" stroke-width="2.66667" stroke-linecap="butt" stroke-opacity="1" fill="none" fill-opacity="1"/><path d="M90.71 43.71C90.24 41.27 85.65 40.06 80 40.71L80 34 76 34 76 41.4C70.08 42.88 65.87 45.88 66.37 48.4 66.81 50.68 70.85 51.88 76 51.53L76 75.43 68 83.43 70.83 86.26 76 81.09 76 86 80 86 80 81.07 85.21 86.28 88 83.45 80 75.45 80 51C86.47 49.63 91.24 46.42 90.71 43.71Z" stroke="#EB8B2D" stroke-width="2.66667" stroke-linecap="butt" stroke-opacity="1" fill="none" fill-opacity="1"/><path d="M19 15 19 8 15 8 15 14.34C9.58 13.83 5.25 15.06 4.79 17.45 4.28 20.13 8.79 23.29 15 24.74L15 75.37 6.92 83.45 9.74 86.28 15 81 15 86 19 86 19 81.14 24.14 86.28 27 83.45 19 75.45 19 25.38C24.38 25.86 28.67 24.64 29.13 22.25 29.64 19.59 25.18 16.44 19 15Z" stroke="#EB8B2D" stroke-width="2.66667" stroke-linecap="butt" stroke-opacity="1" fill="none" fill-opacity="1"/><circle cx="46" cy="69" r="11" stroke="#EB8B2D" stroke-width="2.66667" stroke-linecap="butt" stroke-opacity="1" fill="none" fill-opacity="1"/><path d="M61.54 36C64.08 36 67.74 36.23 70 37.34L70 31C69.81 29.83 66.07 28.9 61.5 28.9 56.93 28.9 53.21 29.83 53 31L53 31 53 32 47 32 47 49 45 49 45 32 39 32 39 31C38.81 29.77 35.07 28.78 30.5 28.78 25.93 28.78 22.21 29.77 22 31L22 31 22 37.38C24.25 36.26 28 36 30.54 36 33.08 36 36.74 36.23 39 37.32L39 36 41 36 41 49.66C30.3051 52.4214 23.8737 63.33 26.6351 74.0249 29.3965 84.7199 40.3051 91.1513 51 88.3898 61.6949 85.6284 68.1263 74.7199 65.3649 64.0249 63.546 56.9802 58.0448 51.4789 51 49.66L51 36 53 36 53 37.4C55.25 36.27 59 36 61.54 36ZM60 69C60 76.732 53.732 83 46 83 38.268 83 32 76.732 32 69 32 61.268 38.268 55 46 55 53.732 55 60 61.268 60 69Z" stroke="#EB8B2D" stroke-width="2.66667" stroke-linecap="butt" stroke-opacity="1" fill="none" fill-opacity="1"/></svg>