<svg viewBox="0 0 96 96" xmlns="http://www.w3.org/2000/svg" xmlns:xlink="http://www.w3.org/1999/xlink" id="Icons_Skateboard" overflow="hidden"><path d="M44.34 68.68C41.82 69.94 38.86 71.35 36.05 72.52 36.3289 75.2673 38.7821 77.2684 41.5294 76.9895 44.2767 76.7106 46.2777 74.2574 45.9989 71.5101 45.8845 70.3838 45.3914 69.3296 44.6 68.52Z" stroke="#EB8B2D" stroke-width="2.66667" stroke-linecap="butt" stroke-opacity="1" fill="none" fill-opacity="1"/><path d="M84.14 45.14 83.8 45.4C82.63 46.28 79.8 48.07 76.19 50.3 76.9044 52.9674 79.6459 54.5507 82.3133 53.8363 84.9807 53.1219 86.564 50.3804 85.8496 47.713 85.5791 46.7029 84.9986 45.803 84.19 45.14Z" stroke="#EB8B2D" stroke-width="2.66667" stroke-linecap="butt" stroke-opacity="1" fill="none" fill-opacity="1"/><path d="M81 21C78 21 74 23 69 27 65.1 30.12 61 33 50 39 39 45 22 54 19 55 16 56 8.11 56.24 6 59 4.56 60.88 4.16 65.64 9 68 14 70.44 21.81 72.88 28 72 32.08 71.42 41 67 43 66 51 62 78 46 82 43 85.58 40.32 89 36.85 90 34 91 31.15 90.87 25.18 88 23 85.9257 21.6341 83.4828 20.9362 81 21Z" stroke="#EB8B2D" stroke-width="2.66667" stroke-linecap="butt" stroke-opacity="1" fill="none" fill-opacity="1"/></svg>