<svg viewBox="0 0 96 96" xmlns="http://www.w3.org/2000/svg" xmlns:xlink="http://www.w3.org/1999/xlink" id="Icons_DownhillSkiing" overflow="hidden"><g><circle cx="82" cy="33.7" r="8" stroke="#EB8B2D" stroke-width="2.66667" stroke-linecap="butt" stroke-opacity="1" fill="none" fill-opacity="1"/><path d="M78.1 82.7C77.1 82.7 76.3 82.5 76.3 82.5L76 82.4 6 53.3 7.5 49.6 77.3 78.6C77.8 78.7 79.9 78.9 81.5 77.3 82.3 76.5 83.5 76.5 84.3 77.2 85.1 78 85.1 79.2 84.4 80 82.4 82.3 79.8 82.7 78.1 82.7Z" stroke="#EB8B2D" stroke-width="2.66667" stroke-linecap="butt" stroke-opacity="1" fill="none" fill-opacity="1"/><path d="M82.6 51.4 72 47 72 29.9C72 27.1 70.4 24.5 67.7 23.4L44.8 13.9C41.2 12.4 37.1 14.1 35.7 17.7 35 19.3 35 21.1 35.5 22.6L42.5 40 27.2 46C24.6 47 23.4 49.9 24.4 52.5 25.2 54.5 27.1 55.6 29 55.6 29.6 55.6 30.2 55.5 30.9 55.2L50.9 47.2C52.1 46.7 53.1 45.7 53.6 44.5 54.1 43.3 54.1 41.9 53.6 40.7L49.6 30.9 64 37C64 42.6 64 49.7 64 49.7 64 51.2 64.9 52.7 66.4 53.3L79.4 58.8C79.9 59 80.4 59.1 80.9 59.1 82.5 59.1 83.9 58.2 84.6 56.6 85.6 54.6 84.7 52.3 82.6 51.4Z" stroke="#EB8B2D" stroke-width="2.66667" stroke-linecap="butt" stroke-opacity="1" fill="none" fill-opacity="1"/></g></svg>